<?xml version="1.0" encoding="utf-8"?>
<!-- Svg Vector Icons : http://www.onlinewebfonts.com/icon -->
<!DOCTYPE svg PUBLIC "-//W3C//DTD SVG 1.1//EN" "http://www.w3.org/Graphics/SVG/1.1/DTD/svg11.dtd">
<svg version="1.1" xmlns="http://www.w3.org/2000/svg" xmlns:xlink="http://www.w3.org/1999/xlink" x="0px" y="0px" viewBox="0 0 1000 1000" enable-background="new 0 0 1000 1000" xml:space="preserve">
<metadata> Svg Vector Icons : http://www.onlinewebfonts.com/icon </metadata>
<g><path d="M936.1,63.9C900.2,28,856.9,10,806.3,10H193.8c-50.6,0-93.9,18-129.8,53.9C28,99.8,10,143.1,10,193.7v612.5c0,50.6,18,93.9,53.9,129.8C99.9,972,143.1,990,193.8,990h612.5c50.6,0,93.9-18,129.8-53.9C972,900.1,990,856.9,990,806.3V193.7C990,143.1,972,99.8,936.1,63.9z M308.6,830.5H161.2V387.7h147.4V830.5z M295.2,305.7c-15.3,14.7-35.5,22-60.6,22h-0.6c-24.2,0-43.9-7.3-59-22c-15.1-14.7-22.7-32.9-22.7-54.6c0-22.1,7.8-40.4,23.3-54.9c15.5-14.5,35.6-21.7,60.3-21.7c24.7,0,44.4,7.2,59.3,21.7c14.9,14.5,22.5,32.8,23,54.9C318.2,272.9,310.5,291,295.2,305.7z M838.8,830.5H691.4V593.8c0-66.8-24.7-100.2-74-100.2c-18.7,0-34.4,5.2-47.2,15.6c-12.8,10.4-22.3,23.1-28.7,38c-3,7.7-4.5,19.6-4.5,35.7v247.6H389.6c1.3-267.1,1.3-414.7,0-442.8H537v62.5c31-48.5,75-72.7,132.1-72.7c51,0,92.1,16.8,123.1,50.4c31,33.6,46.6,83.2,46.6,148.7L838.8,830.5L838.8,830.5z"/></g>
</svg>
